<mxfile host="app.diagrams.net" modified="2023-01-09T10:51:24.558Z" agent="5.0 (X11)" etag="v7gL0SnEwuUpw422ek3A" version="20.8.3" type="github">
  <diagram id="mvksxYR37wyYuG3UCGVY" name="Page-1">
    <mxGraphModel dx="689" dy="1061" grid="1" gridSize="10" guides="1" tooltips="1" connect="1" arrows="1" fold="1" page="1" pageScale="1" pageWidth="827" pageHeight="1169" math="0" shadow="0">
      <root>
        <mxCell id="0" />
        <mxCell id="1" parent="0" />
        <mxCell id="172" value="" style="group" parent="1" vertex="1" connectable="0">
          <mxGeometry x="10" y="710" width="817" height="450" as="geometry" />
        </mxCell>
        <mxCell id="168" value="" style="verticalLabelPosition=bottom;verticalAlign=top;html=1;shape=mxgraph.basic.rect;fillColor2=none;strokeWidth=1;size=20;indent=5;strokeColor=#4059FF;opacity=40;" parent="172" vertex="1">
          <mxGeometry width="817" height="450" as="geometry" />
        </mxCell>
        <mxCell id="169" value="Model" style="text;html=1;align=center;verticalAlign=middle;resizable=0;points=[];autosize=1;strokeColor=none;fillColor=none;" parent="172" vertex="1">
          <mxGeometry x="4" width="60" height="30" as="geometry" />
        </mxCell>
        <mxCell id="167" value="" style="group" parent="1" vertex="1" connectable="0">
          <mxGeometry x="200" y="7" width="1340" height="703" as="geometry" />
        </mxCell>
        <mxCell id="165" value="" style="verticalLabelPosition=bottom;verticalAlign=top;html=1;shape=mxgraph.basic.rect;fillColor2=none;strokeWidth=1;size=20;indent=5;strokeColor=#4059FF;opacity=40;" parent="167" vertex="1">
          <mxGeometry width="1340" height="703" as="geometry" />
        </mxCell>
        <mxCell id="166" value="Control" style="text;html=1;align=center;verticalAlign=middle;resizable=0;points=[];autosize=1;strokeColor=none;fillColor=none;" parent="167" vertex="1">
          <mxGeometry x="14" y="3" width="60" height="30" as="geometry" />
        </mxCell>
        <mxCell id="142" value="AppData" style="swimlane;fontStyle=1;align=center;verticalAlign=top;childLayout=stackLayout;horizontal=1;startSize=26;horizontalStack=0;resizeParent=1;resizeParentMax=0;resizeLast=0;collapsible=1;marginBottom=0;" parent="167" vertex="1">
          <mxGeometry x="980" y="481" width="260" height="222" as="geometry" />
        </mxCell>
        <mxCell id="143" value="+ LEVELAMOUNT: int &lt;&lt;static&gt;&gt; &lt;&lt;final&gt;&gt;&#xa;+ MAXIMUM_ITEMS_IN_CUSTOM_LEVEL: &#xa;int &lt;&lt;static&gt;&gt; &lt;&lt;final&gt;&gt;&#xa;+ FONT_STYLE: Font &lt;&lt;static&gt;&gt; &lt;&lt;final&gt;&gt;&#xa;- passwords: ArrayList&lt;String&gt;" style="text;strokeColor=none;fillColor=none;align=left;verticalAlign=top;spacingLeft=4;spacingRight=4;overflow=hidden;rotatable=0;points=[[0,0.5],[1,0.5]];portConstraint=eastwest;" parent="142" vertex="1">
          <mxGeometry y="26" width="260" height="106" as="geometry" />
        </mxCell>
        <mxCell id="144" value="" style="line;strokeWidth=1;fillColor=none;align=left;verticalAlign=middle;spacingTop=-1;spacingLeft=3;spacingRight=3;rotatable=0;labelPosition=right;points=[];portConstraint=eastwest;strokeColor=inherit;" parent="142" vertex="1">
          <mxGeometry y="132" width="260" height="8" as="geometry" />
        </mxCell>
        <mxCell id="145" value="+ initialize() &lt;&lt;static&gt;&gt;&#xa;+ getPassword(i: int): String &lt;&lt;static&gt;&gt;&#xa;+ getPasswordAmount(): int &lt;&lt;static&gt;&gt;&#xa;+ getLevel(i: int): Level &lt;&lt;static&gt;&gt;&#xa;+ generateItem(name: String): Item &lt;&lt;static&gt;&gt;" style="text;strokeColor=none;fillColor=none;align=left;verticalAlign=top;spacingLeft=4;spacingRight=4;overflow=hidden;rotatable=0;points=[[0,0.5],[1,0.5]];portConstraint=eastwest;" parent="142" vertex="1">
          <mxGeometry y="140" width="260" height="82" as="geometry" />
        </mxCell>
        <mxCell id="rfqS0FoRNYUOpUuC3CO1-176" value="CustomLevelManager" style="swimlane;fontStyle=1;align=center;verticalAlign=top;childLayout=stackLayout;horizontal=1;startSize=26;horizontalStack=0;resizeParent=1;resizeParentMax=0;resizeLast=0;collapsible=1;marginBottom=0;strokeColor=#4059FF;" parent="167" vertex="1">
          <mxGeometry x="945" y="373" width="330" height="90" as="geometry" />
        </mxCell>
        <mxCell id="rfqS0FoRNYUOpUuC3CO1-177" value="" style="line;strokeWidth=1;fillColor=none;align=left;verticalAlign=middle;spacingTop=-1;spacingLeft=3;spacingRight=3;rotatable=0;labelPosition=right;points=[];portConstraint=eastwest;strokeColor=inherit;" parent="rfqS0FoRNYUOpUuC3CO1-176" vertex="1">
          <mxGeometry y="26" width="330" height="8" as="geometry" />
        </mxCell>
        <mxCell id="rfqS0FoRNYUOpUuC3CO1-178" value="+ save(customLevel: Level) &lt;&lt;static&gt;&gt;&#xa;+ save(customLevel: Level, saveFolder: String) &lt;&lt;static&gt;&gt;&#xa;+ load(path: String) &lt;&lt;static&gt;&gt;" style="text;strokeColor=none;fillColor=none;align=left;verticalAlign=top;spacingLeft=4;spacingRight=4;overflow=hidden;rotatable=0;points=[[0,0.5],[1,0.5]];portConstraint=eastwest;" parent="rfqS0FoRNYUOpUuC3CO1-176" vertex="1">
          <mxGeometry y="34" width="330" height="56" as="geometry" />
        </mxCell>
        <mxCell id="153" value="" style="group;textOpacity=70;opacity=50;" parent="1" vertex="1" connectable="0">
          <mxGeometry y="170" width="810" height="540" as="geometry" />
        </mxCell>
        <mxCell id="151" value="" style="verticalLabelPosition=bottom;verticalAlign=top;html=1;shape=mxgraph.basic.rect;fillColor2=none;strokeWidth=1;size=20;indent=5;strokeColor=#4059FF;opacity=50;" parent="153" vertex="1">
          <mxGeometry width="810" height="540" as="geometry" />
        </mxCell>
        <mxCell id="152" value="View" style="text;html=1;align=center;verticalAlign=middle;resizable=0;points=[];autosize=1;strokeColor=none;fillColor=none;" parent="153" vertex="1">
          <mxGeometry x="10" y="10" width="50" height="30" as="geometry" />
        </mxCell>
        <mxCell id="rfqS0FoRNYUOpUuC3CO1-179" value="GUILevelEditorPage" style="swimlane;fontStyle=1;align=center;verticalAlign=top;childLayout=stackLayout;horizontal=1;startSize=26;horizontalStack=0;resizeParent=1;resizeParentMax=0;resizeLast=0;collapsible=1;marginBottom=0;" parent="153" vertex="1">
          <mxGeometry x="30" y="210" width="160" height="60" as="geometry" />
        </mxCell>
        <mxCell id="rfqS0FoRNYUOpUuC3CO1-181" value="" style="line;strokeWidth=1;fillColor=none;align=left;verticalAlign=middle;spacingTop=-1;spacingLeft=3;spacingRight=3;rotatable=0;labelPosition=right;points=[];portConstraint=eastwest;strokeColor=inherit;" parent="rfqS0FoRNYUOpUuC3CO1-179" vertex="1">
          <mxGeometry y="26" width="160" height="8" as="geometry" />
        </mxCell>
        <mxCell id="rfqS0FoRNYUOpUuC3CO1-182" value="+ getPane(): Container" style="text;strokeColor=none;fillColor=none;align=left;verticalAlign=top;spacingLeft=4;spacingRight=4;overflow=hidden;rotatable=0;points=[[0,0.5],[1,0.5]];portConstraint=eastwest;" parent="rfqS0FoRNYUOpUuC3CO1-179" vertex="1">
          <mxGeometry y="34" width="160" height="26" as="geometry" />
        </mxCell>
        <mxCell id="98" value="GUIFrontpage" style="swimlane;fontStyle=1;align=center;verticalAlign=top;childLayout=stackLayout;horizontal=1;startSize=26;horizontalStack=0;resizeParent=1;resizeParentMax=0;resizeLast=0;collapsible=1;marginBottom=0;" parent="153" vertex="1">
          <mxGeometry x="30" y="110" width="160" height="60" as="geometry" />
        </mxCell>
        <mxCell id="100" value="" style="line;strokeWidth=1;fillColor=none;align=left;verticalAlign=middle;spacingTop=-1;spacingLeft=3;spacingRight=3;rotatable=0;labelPosition=right;points=[];portConstraint=eastwest;strokeColor=inherit;" parent="98" vertex="1">
          <mxGeometry y="26" width="160" height="8" as="geometry" />
        </mxCell>
        <mxCell id="101" value="+ getPane(): Container" style="text;strokeColor=none;fillColor=none;align=left;verticalAlign=top;spacingLeft=4;spacingRight=4;overflow=hidden;rotatable=0;points=[[0,0.5],[1,0.5]];portConstraint=eastwest;" parent="98" vertex="1">
          <mxGeometry y="34" width="160" height="26" as="geometry" />
        </mxCell>
        <mxCell id="8h8RB2Nk_SxBK3uABi0S-176" value="ItemPanel" style="swimlane;fontStyle=1;align=center;verticalAlign=top;childLayout=stackLayout;horizontal=1;startSize=26;horizontalStack=0;resizeParent=1;resizeParentMax=0;resizeLast=0;collapsible=1;marginBottom=0;" vertex="1" parent="153">
          <mxGeometry x="40" y="330" width="160" height="190" as="geometry" />
        </mxCell>
        <mxCell id="8h8RB2Nk_SxBK3uABi0S-177" value="- icon: ImageIcon- nameField: JFormattedTextField &lt;&lt;final&gt;&gt;&#xa;- weightField: JFormattedTextField &lt;&lt;final&gt;&gt;&#xa;- valueField: JFormattedTextField &lt;&lt;final&gt;&gt; &#xa;- amountField: JFormattedTextField &lt;&lt;final&gt;&gt; &#xa;- myContainer: Container " style="text;strokeColor=none;fillColor=none;align=left;verticalAlign=top;spacingLeft=4;spacingRight=4;overflow=hidden;rotatable=0;points=[[0,0.5],[1,0.5]];portConstraint=eastwest;" vertex="1" parent="8h8RB2Nk_SxBK3uABi0S-176">
          <mxGeometry y="26" width="160" height="84" as="geometry" />
        </mxCell>
        <mxCell id="8h8RB2Nk_SxBK3uABi0S-178" value="" style="line;strokeWidth=1;fillColor=none;align=left;verticalAlign=middle;spacingTop=-1;spacingLeft=3;spacingRight=3;rotatable=0;labelPosition=right;points=[];portConstraint=eastwest;strokeColor=inherit;" vertex="1" parent="8h8RB2Nk_SxBK3uABi0S-176">
          <mxGeometry y="110" width="160" height="8" as="geometry" />
        </mxCell>
        <mxCell id="8h8RB2Nk_SxBK3uABi0S-179" value="+ ItemPanel()&#xa;+ getPanel(): Container&#xa;+ generateItem(): Item&#xa;+ getAmount(): int&#xa;" style="text;strokeColor=none;fillColor=none;align=left;verticalAlign=top;spacingLeft=4;spacingRight=4;overflow=hidden;rotatable=0;points=[[0,0.5],[1,0.5]];portConstraint=eastwest;" vertex="1" parent="8h8RB2Nk_SxBK3uABi0S-176">
          <mxGeometry y="118" width="160" height="72" as="geometry" />
        </mxCell>
        <mxCell id="8h8RB2Nk_SxBK3uABi0S-183" value="&lt;div&gt;itemPanels (ArrayList)&lt;/div&gt;" style="endArrow=block;endFill=1;html=1;edgeStyle=orthogonalEdgeStyle;align=left;verticalAlign=top;rounded=0;exitX=0;exitY=0.75;exitDx=0;exitDy=0;entryX=0.25;entryY=0;entryDx=0;entryDy=0;" edge="1" parent="153" source="rfqS0FoRNYUOpUuC3CO1-179" target="8h8RB2Nk_SxBK3uABi0S-176">
          <mxGeometry x="-0.6552" y="10" relative="1" as="geometry">
            <mxPoint x="50" y="300" as="sourcePoint" />
            <mxPoint x="210" y="300" as="targetPoint" />
            <mxPoint as="offset" />
          </mxGeometry>
        </mxCell>
        <mxCell id="8h8RB2Nk_SxBK3uABi0S-184" value="*" style="edgeLabel;resizable=0;html=1;align=left;verticalAlign=bottom;" connectable="0" vertex="1" parent="8h8RB2Nk_SxBK3uABi0S-183">
          <mxGeometry x="-1" relative="1" as="geometry">
            <mxPoint x="-10" as="offset" />
          </mxGeometry>
        </mxCell>
        <mxCell id="88" value="guiManager" style="endArrow=open;endFill=0;html=1;edgeStyle=orthogonalEdgeStyle;align=left;verticalAlign=top;rounded=0;entryX=0.75;entryY=0;entryDx=0;entryDy=0;exitX=0;exitY=0.5;exitDx=0;exitDy=0;" parent="1" source="77" target="78" edge="1">
          <mxGeometry x="-0.5484" y="-30" relative="1" as="geometry">
            <mxPoint x="190" y="110" as="sourcePoint" />
            <mxPoint x="370" y="90" as="targetPoint" />
            <mxPoint as="offset" />
          </mxGeometry>
        </mxCell>
        <mxCell id="89" value="1" style="edgeLabel;resizable=0;html=1;align=left;verticalAlign=bottom;" parent="88" connectable="0" vertex="1">
          <mxGeometry x="-1" relative="1" as="geometry">
            <mxPoint x="-20" y="20" as="offset" />
          </mxGeometry>
        </mxCell>
        <mxCell id="102" value="GUIOptionsPage" style="swimlane;fontStyle=1;align=center;verticalAlign=top;childLayout=stackLayout;horizontal=1;startSize=26;horizontalStack=0;resizeParent=1;resizeParentMax=0;resizeLast=0;collapsible=1;marginBottom=0;" parent="1" vertex="1">
          <mxGeometry x="250" y="530" width="180" height="90" as="geometry" />
        </mxCell>
        <mxCell id="104" value="" style="line;strokeWidth=1;fillColor=none;align=left;verticalAlign=middle;spacingTop=-1;spacingLeft=3;spacingRight=3;rotatable=0;labelPosition=right;points=[];portConstraint=eastwest;strokeColor=inherit;" parent="102" vertex="1">
          <mxGeometry y="26" width="180" height="8" as="geometry" />
        </mxCell>
        <mxCell id="105" value="- confirmPassword(pw: String,&#xa; parent: Container) &lt;&lt;static&gt;&gt;&#xa;+ getPane(): Container" style="text;strokeColor=none;fillColor=none;align=left;verticalAlign=top;spacingLeft=4;spacingRight=4;overflow=hidden;rotatable=0;points=[[0,0.5],[1,0.5]];portConstraint=eastwest;" parent="102" vertex="1">
          <mxGeometry y="34" width="180" height="56" as="geometry" />
        </mxCell>
        <mxCell id="106" value="GUILevelDeciderPage" style="swimlane;fontStyle=1;align=center;verticalAlign=top;childLayout=stackLayout;horizontal=1;startSize=26;horizontalStack=0;resizeParent=1;resizeParentMax=0;resizeLast=0;collapsible=1;marginBottom=0;" parent="1" vertex="1">
          <mxGeometry x="600" y="360" width="160" height="60" as="geometry" />
        </mxCell>
        <mxCell id="108" value="" style="line;strokeWidth=1;fillColor=none;align=left;verticalAlign=middle;spacingTop=-1;spacingLeft=3;spacingRight=3;rotatable=0;labelPosition=right;points=[];portConstraint=eastwest;strokeColor=inherit;" parent="106" vertex="1">
          <mxGeometry y="26" width="160" height="8" as="geometry" />
        </mxCell>
        <mxCell id="109" value="+ getPane(): Container" style="text;strokeColor=none;fillColor=none;align=left;verticalAlign=top;spacingLeft=4;spacingRight=4;overflow=hidden;rotatable=0;points=[[0,0.5],[1,0.5]];portConstraint=eastwest;" parent="106" vertex="1">
          <mxGeometry y="34" width="160" height="26" as="geometry" />
        </mxCell>
        <mxCell id="110" value="guiLevelDeciderPage" style="endArrow=open;endFill=0;html=1;edgeStyle=orthogonalEdgeStyle;align=left;verticalAlign=top;rounded=0;exitX=1;exitY=0.5;exitDx=0;exitDy=0;entryX=0.75;entryY=0;entryDx=0;entryDy=0;" parent="1" source="81" target="106" edge="1">
          <mxGeometry x="-1" relative="1" as="geometry">
            <mxPoint x="240" y="740" as="sourcePoint" />
            <mxPoint x="400" y="740" as="targetPoint" />
          </mxGeometry>
        </mxCell>
        <mxCell id="111" value="1" style="edgeLabel;resizable=0;html=1;align=left;verticalAlign=bottom;" parent="110" connectable="0" vertex="1">
          <mxGeometry x="-1" relative="1" as="geometry" />
        </mxCell>
        <mxCell id="114" value="guiOptionsPage" style="endArrow=open;endFill=0;html=1;edgeStyle=orthogonalEdgeStyle;align=left;verticalAlign=top;rounded=0;entryX=0.25;entryY=0;entryDx=0;entryDy=0;exitX=0.453;exitY=1.002;exitDx=0;exitDy=0;exitPerimeter=0;" parent="1" source="81" target="102" edge="1">
          <mxGeometry x="-1" y="10" relative="1" as="geometry">
            <mxPoint x="240" y="430" as="sourcePoint" />
            <mxPoint x="610" y="740" as="targetPoint" />
            <Array as="points" />
            <mxPoint as="offset" />
          </mxGeometry>
        </mxCell>
        <mxCell id="115" value="1" style="edgeLabel;resizable=0;html=1;align=left;verticalAlign=bottom;" parent="114" connectable="0" vertex="1">
          <mxGeometry x="-1" relative="1" as="geometry">
            <mxPoint x="-20" y="18" as="offset" />
          </mxGeometry>
        </mxCell>
        <mxCell id="116" value="guiFrontPage" style="endArrow=open;endFill=0;html=1;edgeStyle=orthogonalEdgeStyle;align=left;verticalAlign=top;rounded=0;exitX=0;exitY=0.5;exitDx=0;exitDy=0;entryX=0.25;entryY=0;entryDx=0;entryDy=0;" parent="1" source="79" target="98" edge="1">
          <mxGeometry x="-0.6674" y="1" relative="1" as="geometry">
            <mxPoint x="430" y="680" as="sourcePoint" />
            <mxPoint x="590" y="680" as="targetPoint" />
            <mxPoint as="offset" />
          </mxGeometry>
        </mxCell>
        <mxCell id="117" value="1" style="edgeLabel;resizable=0;html=1;align=left;verticalAlign=bottom;" parent="116" connectable="0" vertex="1">
          <mxGeometry x="-1" relative="1" as="geometry">
            <mxPoint x="-10" as="offset" />
          </mxGeometry>
        </mxCell>
        <mxCell id="118" value="GUILevelPage" style="swimlane;fontStyle=1;align=center;verticalAlign=top;childLayout=stackLayout;horizontal=1;startSize=26;horizontalStack=0;resizeParent=1;resizeParentMax=0;resizeLast=0;collapsible=1;marginBottom=0;" parent="1" vertex="1">
          <mxGeometry x="470" y="500" width="330" height="190" as="geometry" />
        </mxCell>
        <mxCell id="119" value="- labels: JLabel[]&#xa;- rucksackLabels: JLabel[]&#xa;- currentValueLabel: Jlabel&#xa;- currentWeightLabel: JLabel" style="text;strokeColor=none;fillColor=none;align=left;verticalAlign=top;spacingLeft=4;spacingRight=4;overflow=hidden;rotatable=0;points=[[0,0.5],[1,0.5]];portConstraint=eastwest;" parent="118" vertex="1">
          <mxGeometry y="26" width="330" height="74" as="geometry" />
        </mxCell>
        <mxCell id="120" value="" style="line;strokeWidth=1;fillColor=none;align=left;verticalAlign=middle;spacingTop=-1;spacingLeft=3;spacingRight=3;rotatable=0;labelPosition=right;points=[];portConstraint=eastwest;strokeColor=inherit;" parent="118" vertex="1">
          <mxGeometry y="100" width="330" height="8" as="geometry" />
        </mxCell>
        <mxCell id="121" value="+ GUILevelPage(level: Level)&#xa;- escapeButton(centerPanel: Container)&#xa;- itemButtons(panelItems: JPanel, panelRucksack: JPanel)&#xa;- updateLabel(i: int)&#xa;+ getPane(): Container" style="text;strokeColor=none;fillColor=none;align=left;verticalAlign=top;spacingLeft=4;spacingRight=4;overflow=hidden;rotatable=0;points=[[0,0.5],[1,0.5]];portConstraint=eastwest;" parent="118" vertex="1">
          <mxGeometry y="108" width="330" height="82" as="geometry" />
        </mxCell>
        <mxCell id="122" value="Item" style="swimlane;fontStyle=1;align=center;verticalAlign=top;childLayout=stackLayout;horizontal=1;startSize=26;horizontalStack=0;resizeParent=1;resizeParentMax=0;resizeLast=0;collapsible=1;marginBottom=0;" parent="1" vertex="1">
          <mxGeometry x="460" y="860" width="240" height="190" as="geometry" />
        </mxCell>
        <mxCell id="123" value="- value: int&#xa;- weight: int&#xa;- name: String" style="text;strokeColor=none;fillColor=none;align=left;verticalAlign=top;spacingLeft=4;spacingRight=4;overflow=hidden;rotatable=0;points=[[0,0.5],[1,0.5]];portConstraint=eastwest;" parent="122" vertex="1">
          <mxGeometry y="26" width="240" height="54" as="geometry" />
        </mxCell>
        <mxCell id="124" value="" style="line;strokeWidth=1;fillColor=none;align=left;verticalAlign=middle;spacingTop=-1;spacingLeft=3;spacingRight=3;rotatable=0;labelPosition=right;points=[];portConstraint=eastwest;strokeColor=inherit;" parent="122" vertex="1">
          <mxGeometry y="80" width="240" height="8" as="geometry" />
        </mxCell>
        <mxCell id="125" value="+ Item(value: int, weight: int, name: String)&#xa;+ Item() // Only for XML creation&#xa;+ getValue(): int&#xa;+ getWeight(): int&#xa;+ getName(): String&#xa;+ toString(): String&#xa;" style="text;strokeColor=none;fillColor=none;align=left;verticalAlign=top;spacingLeft=4;spacingRight=4;overflow=hidden;rotatable=0;points=[[0,0.5],[1,0.5]];portConstraint=eastwest;" parent="122" vertex="1">
          <mxGeometry y="88" width="240" height="102" as="geometry" />
        </mxCell>
        <mxCell id="126" value="guiLevelPages[]" style="endArrow=open;endFill=0;html=1;edgeStyle=orthogonalEdgeStyle;align=left;verticalAlign=top;rounded=0;exitX=0;exitY=0.5;exitDx=0;exitDy=0;entryX=0.25;entryY=0;entryDx=0;entryDy=0;" parent="1" source="109" target="118" edge="1">
          <mxGeometry x="-0.3793" y="8" relative="1" as="geometry">
            <mxPoint x="500" y="670" as="sourcePoint" />
            <mxPoint x="660" y="670" as="targetPoint" />
            <Array as="points">
              <mxPoint x="580" y="407" />
              <mxPoint x="580" y="480" />
              <mxPoint x="553" y="480" />
            </Array>
            <mxPoint as="offset" />
          </mxGeometry>
        </mxCell>
        <mxCell id="127" value="15" style="edgeLabel;resizable=0;html=1;align=left;verticalAlign=bottom;" parent="126" connectable="0" vertex="1">
          <mxGeometry x="-1" relative="1" as="geometry">
            <mxPoint x="-20" y="-2" as="offset" />
          </mxGeometry>
        </mxCell>
        <mxCell id="128" value="Level" style="swimlane;fontStyle=1;align=center;verticalAlign=top;childLayout=stackLayout;horizontal=1;startSize=26;horizontalStack=0;resizeParent=1;resizeParentMax=0;resizeLast=0;collapsible=1;marginBottom=0;" parent="1" vertex="1">
          <mxGeometry x="74" y="720" width="340" height="420" as="geometry" />
        </mxCell>
        <mxCell id="129" value="- itemList: ArrayList&lt;Item&gt;&#xa;- itemAmountList: ArrayList&lt;int&gt;&#xa;- availableItemAmountList: ArrayList&lt;int&gt;&#xa;- inrRucksackAmountList: ArrayList&lt;int&gt;&#xa;- currentValue: int&#xa;- currentWeight: int&#xa;- robber: Robber&#xa;- levelindex: int&#xa;- capacity: int" style="text;strokeColor=none;fillColor=none;align=left;verticalAlign=top;spacingLeft=4;spacingRight=4;overflow=hidden;rotatable=0;points=[[0,0.5],[1,0.5]];portConstraint=eastwest;" parent="128" vertex="1">
          <mxGeometry y="26" width="340" height="144" as="geometry" />
        </mxCell>
        <mxCell id="130" value="" style="line;strokeWidth=1;fillColor=none;align=left;verticalAlign=middle;spacingTop=-1;spacingLeft=3;spacingRight=3;rotatable=0;labelPosition=right;points=[];portConstraint=eastwest;strokeColor=inherit;" parent="128" vertex="1">
          <mxGeometry y="170" width="340" height="8" as="geometry" />
        </mxCell>
        <mxCell id="131" value="+ Level(itemList: ArrayList&lt;Item&gt;, itemAmountList: &#xa;ArrayList&lt;int&gt;, levelindex: int, capacity: int)&#xa;+ Level(itemList: ArrayList&lt;Item&gt;, itemAmountList: &#xa;ArrayList&lt;int&gt;, levelindex: int, capacity: int, robber: Robber)&#xa;+ Level() // Only for XML creation&#xa;+ getRucksackCapacity(): int&#xa;+ getItemList(): ArrayList&lt;Item&gt;&#xa;+ getItemAmountList(): ArrayList&lt;int&gt;&#xa;+ getItemAmountAvailable(i: int): int&#xa;+ getItemAmountInRucksack(i: int): int&#xa;+ resetLevel()&#xa;+ getLevelNumber(): int&#xa;+ moveToRucksack(i: int)&#xa;+ moveFromRucksack(i: int)&#xa;+ getCurrentValue(): int&#xa;+ getCurrentWeight(): int&#xa;+ getCapacity(): int" style="text;strokeColor=none;fillColor=none;align=left;verticalAlign=top;spacingLeft=4;spacingRight=4;overflow=hidden;rotatable=0;points=[[0,0.5],[1,0.5]];portConstraint=eastwest;" parent="128" vertex="1">
          <mxGeometry y="178" width="340" height="242" as="geometry" />
        </mxCell>
        <mxCell id="132" value="level" style="endArrow=open;endFill=0;html=1;edgeStyle=orthogonalEdgeStyle;align=left;verticalAlign=top;rounded=0;exitX=0;exitY=0.5;exitDx=0;exitDy=0;entryX=0.5;entryY=0;entryDx=0;entryDy=0;" parent="1" source="121" target="128" edge="1">
          <mxGeometry x="-0.6313" y="-3" relative="1" as="geometry">
            <mxPoint x="420" y="770" as="sourcePoint" />
            <mxPoint x="580" y="770" as="targetPoint" />
            <mxPoint as="offset" />
          </mxGeometry>
        </mxCell>
        <mxCell id="133" value="1" style="edgeLabel;resizable=0;html=1;align=left;verticalAlign=bottom;" parent="132" connectable="0" vertex="1">
          <mxGeometry x="-1" relative="1" as="geometry">
            <mxPoint x="-20" as="offset" />
          </mxGeometry>
        </mxCell>
        <mxCell id="78" value="GUIManager" style="swimlane;fontStyle=1;align=center;verticalAlign=top;childLayout=stackLayout;horizontal=1;startSize=26;horizontalStack=0;resizeParent=1;resizeParentMax=0;resizeLast=0;collapsible=1;marginBottom=0;" parent="1" vertex="1">
          <mxGeometry x="240" y="190" width="320" height="220" as="geometry" />
        </mxCell>
        <mxCell id="79" value="- frame: Jframe &lt;&lt;static&gt;&gt;" style="text;strokeColor=none;fillColor=none;align=left;verticalAlign=top;spacingLeft=4;spacingRight=4;overflow=hidden;rotatable=0;points=[[0,0.5],[1,0.5]];portConstraint=eastwest;" parent="78" vertex="1">
          <mxGeometry y="26" width="320" height="26" as="geometry" />
        </mxCell>
        <mxCell id="80" value="" style="line;strokeWidth=1;fillColor=none;align=left;verticalAlign=middle;spacingTop=-1;spacingLeft=3;spacingRight=3;rotatable=0;labelPosition=right;points=[];portConstraint=eastwest;strokeColor=inherit;" parent="78" vertex="1">
          <mxGeometry y="52" width="320" height="8" as="geometry" />
        </mxCell>
        <mxCell id="81" value="+ launch()&#xa;- paint() &lt;&lt;static&gt;&gt;&#xa;+ openOptionsMenu() &lt;&lt;static&gt;&gt;&#xa;+ openLevelSelectScreen() &lt;&lt;static&gt;&gt;&#xa;+ openMainMenu() &lt;&lt;static&gt;&gt;&#xa;+ openLevel(levelPage: GUILevelPage) &lt;&lt;static&gt;&gt;&#xa;+ getRootPane(): Jcomponent &lt;&lt;static&gt;&gt;&#xa;+ openLevelEditor() &lt;&lt;static&gt;&gt;" style="text;strokeColor=none;fillColor=none;align=left;verticalAlign=top;spacingLeft=4;spacingRight=4;overflow=hidden;rotatable=0;points=[[0,0.5],[1,0.5]];portConstraint=eastwest;" parent="78" vertex="1">
          <mxGeometry y="60" width="320" height="160" as="geometry" />
        </mxCell>
        <mxCell id="135" value="itemList (ArrayList)" style="endArrow=open;endFill=0;html=1;edgeStyle=orthogonalEdgeStyle;align=left;verticalAlign=top;rounded=0;exitX=1;exitY=0.5;exitDx=0;exitDy=0;entryX=0.5;entryY=0;entryDx=0;entryDy=0;" parent="1" source="129" target="122" edge="1">
          <mxGeometry x="-1" relative="1" as="geometry">
            <mxPoint x="410" y="910" as="sourcePoint" />
            <mxPoint x="570" y="910" as="targetPoint" />
          </mxGeometry>
        </mxCell>
        <mxCell id="136" value="*" style="edgeLabel;resizable=0;html=1;align=left;verticalAlign=bottom;" parent="135" connectable="0" vertex="1">
          <mxGeometry x="-1" relative="1" as="geometry" />
        </mxCell>
        <mxCell id="146" value="Solver" style="swimlane;fontStyle=1;align=center;verticalAlign=top;childLayout=stackLayout;horizontal=1;startSize=26;horizontalStack=0;resizeParent=1;resizeParentMax=0;resizeLast=0;collapsible=1;marginBottom=0;" parent="1" vertex="1">
          <mxGeometry x="1130" y="10" width="310" height="120" as="geometry" />
        </mxCell>
        <mxCell id="148" value="" style="line;strokeWidth=1;fillColor=none;align=left;verticalAlign=middle;spacingTop=-1;spacingLeft=3;spacingRight=3;rotatable=0;labelPosition=right;points=[];portConstraint=eastwest;strokeColor=inherit;" parent="146" vertex="1">
          <mxGeometry y="26" width="310" height="8" as="geometry" />
        </mxCell>
        <mxCell id="149" value="+ solveGreedy(level: Level): ArrayList&lt;Item&gt; &lt;&lt;static&gt;&gt;&#xa;+ solveGreedy(items: ArrayList&lt;Item&gt;,amount: &#xa;ArrayList&lt;int&gt;, capacity: int): ArrayList&lt;Item&gt; &lt;&lt;static&gt;&gt;&#xa;+ sortLikeGreedy(items: ArrayList&lt;Item&gt;)&#xa;:ArrayList&lt;Item&gt; &lt;&lt;static&gt;&gt;" style="text;strokeColor=none;fillColor=none;align=left;verticalAlign=top;spacingLeft=4;spacingRight=4;overflow=hidden;rotatable=0;points=[[0,0.5],[1,0.5]];portConstraint=eastwest;" parent="146" vertex="1">
          <mxGeometry y="34" width="310" height="86" as="geometry" />
        </mxCell>
        <mxCell id="74" value="Main " style="swimlane;fontStyle=1;align=center;verticalAlign=top;childLayout=stackLayout;horizontal=1;startSize=26;horizontalStack=0;resizeParent=1;resizeParentMax=0;resizeLast=0;collapsible=1;marginBottom=0;" parent="1" vertex="1">
          <mxGeometry x="600" y="23" width="180" height="60" as="geometry" />
        </mxCell>
        <mxCell id="76" value="" style="line;strokeWidth=1;fillColor=none;align=left;verticalAlign=middle;spacingTop=-1;spacingLeft=3;spacingRight=3;rotatable=0;labelPosition=right;points=[];portConstraint=eastwest;strokeColor=inherit;" parent="74" vertex="1">
          <mxGeometry y="26" width="180" height="8" as="geometry" />
        </mxCell>
        <mxCell id="77" value="+ main(String[] args) &lt;&lt;static&gt;&gt;" style="text;strokeColor=none;fillColor=none;align=left;verticalAlign=top;spacingLeft=4;spacingRight=4;overflow=hidden;rotatable=0;points=[[0,0.5],[1,0.5]];portConstraint=eastwest;" parent="74" vertex="1">
          <mxGeometry y="34" width="180" height="26" as="geometry" />
        </mxCell>
        <mxCell id="154" value="UserDataManager" style="swimlane;fontStyle=1;align=center;verticalAlign=top;childLayout=stackLayout;horizontal=1;startSize=26;horizontalStack=0;resizeParent=1;resizeParentMax=0;resizeLast=0;collapsible=1;marginBottom=0;strokeColor=#4059FF;" parent="1" vertex="1">
          <mxGeometry x="1130" y="167" width="330" height="180" as="geometry" />
        </mxCell>
        <mxCell id="156" value="" style="line;strokeWidth=1;fillColor=none;align=left;verticalAlign=middle;spacingTop=-1;spacingLeft=3;spacingRight=3;rotatable=0;labelPosition=right;points=[];portConstraint=eastwest;strokeColor=inherit;" parent="154" vertex="1">
          <mxGeometry y="26" width="330" height="8" as="geometry" />
        </mxCell>
        <mxCell id="157" value="+ newUser() &lt;&lt;static&gt;&gt;&#xa;+ save() &lt;&lt;static&gt;&gt;&#xa;+ save(saveFolder: String) &lt;&lt;static&gt;&gt;&#xa;+ load() &lt;&lt;static&gt;&gt;&#xa;+ load(saveFolder: String) &lt;&lt;static&gt;&gt;&#xa;+ getScore(level: int):int &lt;&lt;static&gt;&gt;&#xa;+ newHighScore(level: int, score: int) &lt;&lt;static&gt;&gt;&#xa;+ reset() &lt;&lt;static&gt;&gt;&#xa;+ dataToString(): String &lt;&lt;static&gt;&gt;" style="text;strokeColor=none;fillColor=none;align=left;verticalAlign=top;spacingLeft=4;spacingRight=4;overflow=hidden;rotatable=0;points=[[0,0.5],[1,0.5]];portConstraint=eastwest;" parent="154" vertex="1">
          <mxGeometry y="34" width="330" height="146" as="geometry" />
        </mxCell>
        <mxCell id="158" value="UserData" style="swimlane;fontStyle=1;align=center;verticalAlign=top;childLayout=stackLayout;horizontal=1;startSize=26;horizontalStack=0;resizeParent=1;resizeParentMax=0;resizeLast=0;collapsible=1;marginBottom=0;strokeColor=#4059FF;" parent="1" vertex="1">
          <mxGeometry x="890" y="310" width="210" height="140" as="geometry" />
        </mxCell>
        <mxCell id="159" value="- bestLevelScores: ArrayList&lt;int&gt;" style="text;strokeColor=none;fillColor=none;align=left;verticalAlign=top;spacingLeft=4;spacingRight=4;overflow=hidden;rotatable=0;points=[[0,0.5],[1,0.5]];portConstraint=eastwest;" parent="158" vertex="1">
          <mxGeometry y="26" width="210" height="26" as="geometry" />
        </mxCell>
        <mxCell id="160" value="" style="line;strokeWidth=1;fillColor=none;align=left;verticalAlign=middle;spacingTop=-1;spacingLeft=3;spacingRight=3;rotatable=0;labelPosition=right;points=[];portConstraint=eastwest;strokeColor=inherit;" parent="158" vertex="1">
          <mxGeometry y="52" width="210" height="8" as="geometry" />
        </mxCell>
        <mxCell id="161" value="+ newUser()&#xa;+ newHighScore(level: int, score: int)&#xa;+ getScore(level: int)&#xa;+ toString(): String" style="text;strokeColor=none;fillColor=none;align=left;verticalAlign=top;spacingLeft=4;spacingRight=4;overflow=hidden;rotatable=0;points=[[0,0.5],[1,0.5]];portConstraint=eastwest;" parent="158" vertex="1">
          <mxGeometry y="60" width="210" height="80" as="geometry" />
        </mxCell>
        <mxCell id="162" value="data" style="endArrow=open;endFill=0;html=1;edgeStyle=orthogonalEdgeStyle;align=left;verticalAlign=top;rounded=0;entryX=0.5;entryY=0;entryDx=0;entryDy=0;exitX=0;exitY=0.5;exitDx=0;exitDy=0;" parent="1" source="157" target="158" edge="1">
          <mxGeometry x="-0.6226" y="6" relative="1" as="geometry">
            <mxPoint x="1090" y="200" as="sourcePoint" />
            <mxPoint x="1250" y="230" as="targetPoint" />
            <mxPoint as="offset" />
          </mxGeometry>
        </mxCell>
        <mxCell id="163" value="1" style="edgeLabel;resizable=0;html=1;align=left;verticalAlign=bottom;strokeColor=#4059FF;" parent="162" connectable="0" vertex="1">
          <mxGeometry x="-1" relative="1" as="geometry">
            <mxPoint x="-10" as="offset" />
          </mxGeometry>
        </mxCell>
        <mxCell id="173" value="level[]" style="endArrow=open;endFill=0;html=1;edgeStyle=orthogonalEdgeStyle;align=left;verticalAlign=top;rounded=0;exitX=0;exitY=0.5;exitDx=0;exitDy=0;entryX=1.002;entryY=0.175;entryDx=0;entryDy=0;entryPerimeter=0;" parent="1" source="143" target="129" edge="1">
          <mxGeometry x="-0.8951" y="-3" relative="1" as="geometry">
            <mxPoint x="710" y="810" as="sourcePoint" />
            <mxPoint x="870" y="810" as="targetPoint" />
            <Array as="points">
              <mxPoint x="910" y="583" />
              <mxPoint x="910" y="771" />
            </Array>
            <mxPoint as="offset" />
          </mxGeometry>
        </mxCell>
        <mxCell id="174" value="15" style="edgeLabel;resizable=0;html=1;align=left;verticalAlign=bottom;" parent="173" connectable="0" vertex="1">
          <mxGeometry x="-1" relative="1" as="geometry">
            <mxPoint x="-20" as="offset" />
          </mxGeometry>
        </mxCell>
        <mxCell id="175" value="items (ArrayList)" style="endArrow=open;endFill=0;html=1;edgeStyle=orthogonalEdgeStyle;align=left;verticalAlign=top;rounded=0;exitX=0;exitY=0.5;exitDx=0;exitDy=0;entryX=1;entryY=0.5;entryDx=0;entryDy=0;" parent="1" source="145" target="123" edge="1">
          <mxGeometry x="-0.7548" relative="1" as="geometry">
            <mxPoint x="1250" y="740" as="sourcePoint" />
            <mxPoint x="1410" y="740" as="targetPoint" />
            <mxPoint as="offset" />
          </mxGeometry>
        </mxCell>
        <mxCell id="176" value="*" style="edgeLabel;resizable=0;html=1;align=left;verticalAlign=bottom;" parent="175" connectable="0" vertex="1">
          <mxGeometry x="-1" relative="1" as="geometry">
            <mxPoint x="-10" as="offset" />
          </mxGeometry>
        </mxCell>
        <mxCell id="rfqS0FoRNYUOpUuC3CO1-183" value="&lt;div&gt;guiLevel&lt;/div&gt;&lt;div&gt;EditorPage&lt;/div&gt;" style="endArrow=open;endFill=0;html=1;edgeStyle=orthogonalEdgeStyle;align=left;verticalAlign=top;rounded=0;exitX=0;exitY=0.5;exitDx=0;exitDy=0;entryX=0.75;entryY=0;entryDx=0;entryDy=0;" parent="1" source="81" target="rfqS0FoRNYUOpUuC3CO1-179" edge="1">
          <mxGeometry x="-0.6471" y="-45" relative="1" as="geometry">
            <mxPoint x="280" y="480" as="sourcePoint" />
            <mxPoint x="440" y="480" as="targetPoint" />
            <Array as="points">
              <mxPoint x="210" y="330" />
              <mxPoint x="210" y="370" />
              <mxPoint x="150" y="370" />
            </Array>
            <mxPoint x="25" y="-40" as="offset" />
          </mxGeometry>
        </mxCell>
        <mxCell id="rfqS0FoRNYUOpUuC3CO1-184" value="1" style="edgeLabel;resizable=0;html=1;align=left;verticalAlign=bottom;" parent="rfqS0FoRNYUOpUuC3CO1-183" connectable="0" vertex="1">
          <mxGeometry x="-1" relative="1" as="geometry">
            <mxPoint x="-10" y="17" as="offset" />
          </mxGeometry>
        </mxCell>
      </root>
    </mxGraphModel>
  </diagram>
</mxfile>
